<svg viewBox="0 0 234 345" fill="none" xmlns="http://www.w3.org/2000/svg">
<path d="M179.204 172.525C158.441 151.465 137.738 130.466 116.998 109.427C96.2188 130.504 75.5337 151.487 54.7934 172.525C75.5565 193.587 96.258 214.587 116.999 235.627C137.779 214.547 158.463 193.564 179.204 172.525ZM53.9104 171.629C74.9693 150.271 95.9671 128.973 116.999 107.641C138.091 129.035 159.069 150.313 180.087 171.631C197.506 153.959 214.837 136.379 232.234 118.732C193.788 79.7331 155.407 40.8005 116.998 1.83868C78.5272 40.8639 40.1634 79.7794 1.76287 118.734C19.1896 136.41 36.5211 153.99 53.9104 171.629ZM116.999 343.214C155.475 304.184 193.839 265.267 232.234 226.319C214.803 208.637 197.473 191.058 180.087 173.423C159.021 194.789 138.024 216.084 116.998 237.413C95.9044 216.016 74.9283 194.74 53.9104 173.422C36.4879 191.095 19.1577 208.675 1.76349 226.319C40.1954 265.304 78.5591 304.221 116.999 343.214ZM0 226.109C0.240715 225.933 0.51233 225.784 0.721218 225.574C17.9868 208.071 35.2495 190.563 52.5103 173.055C52.6551 172.909 52.7898 172.75 52.983 172.539C52.7421 172.274 52.5255 172.014 52.2881 171.775C35.1505 154.389 18.0122 137.005 0.867842 119.627C0.610749 119.365 0.29031 119.168 0 118.941C0 118.8 0 118.661 0 118.522C0.290928 118.295 0.611367 118.098 0.867842 117.837C39.176 78.9914 77.4787 40.1392 115.78 1.28552C116.147 0.914703 116.482 0.51297 116.946 0C156.001 39.6154 194.97 79.1428 234 118.73C216.303 136.682 198.679 154.56 180.969 172.525C198.645 190.457 216.288 208.354 233.978 226.299C233.662 226.637 233.411 226.917 233.147 227.184C194.797 266.086 156.444 304.987 118.097 343.894C117.766 344.229 117.502 344.629 117.207 345C117.068 345 116.929 345 116.789 345C116.568 344.705 116.378 344.379 116.123 344.119C77.684 305.12 39.2418 266.128 0.794763 227.138C0.562391 226.903 0.266053 226.73 0 226.528C0 226.389 0 226.249 0 226.109Z" fill="#F1C9B0"/>
<path d="M127.805 195.541C125.93 196.21 124.25 196.806 122.576 197.419C122.447 197.465 122.339 197.631 122.275 197.765C121.687 199.013 121.113 200.266 120.532 201.517C119.82 203.051 119.107 204.585 118.394 206.119L118.601 206.268C121.628 202.742 124.655 199.213 127.805 195.541ZM116.41 207.36C116.504 207.342 116.597 207.325 116.691 207.306C118.182 204.215 119.672 201.124 121.244 197.864C119.994 198.259 118.978 198.647 117.929 198.887C117.339 199.022 116.642 199.067 116.081 198.886C113.119 197.933 110.184 196.897 107.24 195.887C106.959 195.79 106.683 195.677 106.405 195.572L106.297 195.7C109.668 199.587 113.039 203.474 116.41 207.36ZM127.825 149.422C124.174 145.23 120.642 141.175 116.998 136.992C113.342 141.195 109.818 145.242 106.184 149.419C109.093 148.427 111.816 147.579 114.472 146.563C116.202 145.902 117.794 145.898 119.525 146.56C122.182 147.577 124.906 148.426 127.825 149.422ZM105.073 151.035C108.704 155.947 112.303 160.776 116.276 165.463C116.276 159.19 116.276 153.099 116.276 146.918C112.425 148.123 108.686 149.306 105.073 151.035ZM105.069 152.476L104.895 152.559C104.895 152.813 104.895 153.066 104.895 153.32C104.897 160.247 104.899 167.175 104.899 174.103C104.9 180.471 104.906 186.839 104.888 193.208C104.887 193.73 105.045 194.022 105.537 194.208C107.784 195.058 110.016 195.951 112.271 196.784C113.548 197.255 114.858 197.636 116.269 198.097C116.269 197.732 116.268 197.48 116.269 197.229C116.297 187.316 116.328 177.402 116.34 167.487C116.341 167.195 116.214 166.851 116.033 166.617C112.823 162.466 109.596 158.329 106.374 154.187C105.933 153.62 105.504 153.046 105.069 152.476ZM117.26 146.757C117.26 163.973 117.26 181.051 117.26 198.187C117.525 198.124 117.688 198.099 117.839 198.044C121.342 196.784 124.84 195.512 128.347 194.263C128.961 194.045 129.12 193.684 129.118 193.057C129.094 185.594 129.102 178.129 129.102 170.665C129.102 164.414 129.09 158.161 129.121 151.91C129.124 151.255 128.892 150.945 128.316 150.727C126.401 149.995 124.511 149.197 122.583 148.5C120.858 147.876 119.097 147.353 117.26 146.757ZM129.999 172.506C129.999 179.691 130.005 186.876 129.979 194.061C129.978 194.437 129.776 194.888 129.52 195.179C125.59 199.654 121.64 204.113 117.684 208.567C117.161 209.155 116.826 209.144 116.287 208.536C112.349 204.098 108.421 199.651 104.482 195.214C104.077 194.757 103.998 194.256 104 193.669C104.018 187.066 104.014 180.463 104.012 173.86C104.01 166.209 103.999 158.558 104.017 150.907C104.018 150.569 104.188 150.163 104.414 149.906C108.375 145.396 112.355 140.901 116.341 136.411C116.837 135.852 117.177 135.864 117.69 136.441C121.644 140.896 125.599 145.351 129.52 149.834C129.809 150.164 129.971 150.712 129.972 151.159C130 157.738 129.989 164.318 129.988 170.898C129.988 171.433 129.988 171.969 129.988 172.506H129.999Z" fill="#F1C9B0"/>
</svg>
