<svg viewBox="0 0 521 521" fill="none" xmlns="http://www.w3.org/2000/svg">
<path d="M30.9168 260.333L260.29 489.708L489.665 260.333L260.29 30.9587L30.9168 260.333ZM260.29 492.615L259.563 491.888L28.0088 260.333L28.7368 259.607L260.29 28.052L261.017 28.7787L492.573 260.333L491.845 261.06L260.29 492.615Z" fill="#F1C9B0"/>
<path d="M57.3591 137.969L50.0098 125.241L51.7911 124.213L59.1391 136.941L57.3591 137.969ZM72.0564 163.425L64.7071 150.697L66.4884 149.669L73.8378 162.397L72.0564 163.425ZM86.7537 188.881L79.4044 176.153L81.1844 175.127L88.5338 187.855L86.7537 188.881ZM101.451 214.337L94.1018 201.611L95.8831 200.583L103.231 213.311L101.451 214.337ZM116.148 239.795L108.799 227.067L110.58 226.039L117.928 238.768L116.148 239.795ZM130.844 265.251L123.496 252.523L125.276 251.495L132.626 264.224L130.844 265.251ZM145.543 290.707L138.194 277.979L139.975 276.952L147.323 289.68L145.543 290.707ZM160.24 316.164L152.891 303.436L154.671 302.409L162.02 315.137L160.24 316.164ZM174.936 341.62L167.588 328.892L169.37 327.864L176.718 340.592L174.936 341.62ZM189.635 367.077L182.286 354.349L184.066 353.321L191.415 366.049L189.635 367.077ZM204.332 392.533L196.983 379.805L198.763 378.777L206.112 391.505L204.332 392.533ZM219.03 417.989L211.68 405.261L213.462 404.235L220.811 416.963L219.03 417.989ZM233.726 443.445L226.378 430.717L228.158 429.691L235.506 442.417L233.726 443.445ZM248.423 468.903L241.075 456.175L242.855 455.147L250.204 467.875L248.423 468.903Z" fill="#F1C9B0"/>
<path d="M76.5743 106.744H61.877V104.689H76.5743V106.744ZM105.969 106.744H91.2716V104.689H105.969V106.744ZM135.362 106.744H120.666V104.689H135.362V106.744ZM164.758 106.744H150.061V104.689H164.758V106.744ZM194.152 106.744H179.454V104.689H194.152V106.744ZM223.546 106.744H208.85V104.689H223.546V106.744ZM252.942 106.744H238.244V104.689H252.942V106.744ZM282.336 106.744H267.64V104.689H282.336V106.744ZM311.732 106.744H297.033V104.689H311.732V106.744ZM341.126 106.744H326.428V104.689H341.126V106.744ZM370.52 106.744H355.822V104.689H370.52V106.744ZM399.914 106.744H385.217V104.689H399.914V106.744ZM429.308 106.744H414.612V104.689H429.308V106.744ZM458.702 106.744H444.006V104.689H458.702V106.744Z" fill="#F1C9B0"/>
<path d="M463.219 137.969L461.439 136.941L468.788 124.213L470.57 125.241L463.219 137.969ZM448.524 163.425L446.743 162.397L454.09 149.669L455.871 150.697L448.524 163.425ZM433.826 188.881L432.044 187.855L439.394 175.127L441.175 176.153L433.826 188.881ZM419.128 214.337L417.348 213.311L424.698 200.583L426.476 201.611L419.128 214.337ZM404.431 239.795L402.651 238.768L409.999 226.04L411.78 227.067L404.431 239.795ZM389.734 265.251L387.954 264.224L395.303 251.496L397.083 252.524L389.734 265.251ZM375.036 290.708L373.256 289.681L380.604 276.953L382.384 277.979L375.036 290.708ZM360.34 316.164L358.559 315.137L365.908 302.409L367.69 303.436L360.34 316.164ZM345.642 341.621L343.863 340.593L351.21 327.865L352.991 328.892L345.642 341.621ZM330.946 367.077L329.164 366.049L336.514 353.321L338.294 354.349L330.946 367.077ZM316.248 392.533L314.468 391.507L321.816 378.779L323.596 379.805L316.248 392.533ZM301.55 417.989L299.77 416.964L307.119 404.235L308.899 405.261L301.55 417.989ZM286.854 443.447L285.072 442.419L292.42 429.692L294.202 430.719L286.854 443.447ZM272.156 468.903L270.375 467.876L277.724 455.147L279.504 456.175L272.156 468.903Z" fill="#F1C9B0"/>
<path d="M509.229 260.333H508.229C508.227 328.791 480.483 390.759 435.622 435.621C390.759 480.483 328.791 508.227 260.334 508.228C191.877 508.227 129.909 480.483 85.0461 435.621C40.1848 390.759 12.4395 328.791 12.4395 260.333C12.4395 191.876 40.1848 129.908 85.0461 85.0453C129.909 40.184 191.877 12.4387 260.334 12.4387C328.791 12.4387 390.759 40.184 435.622 85.0453C480.483 129.909 508.227 191.876 508.229 260.333H509.229H510.229C510.227 122.32 398.347 10.44 260.334 10.4387C122.321 10.44 10.4408 122.32 10.4395 260.333C10.4408 398.347 122.321 510.227 260.334 510.228C398.347 510.227 510.227 398.347 510.229 260.333H509.229Z" fill="#F1C9B0"/>
<path d="M516.736 292.071C516.088 297.361 515.28 302.603 514.317 307.789L516.284 308.155C517.253 302.928 518.068 297.645 518.721 292.313L516.737 292.071H516.736ZM510.931 323.331C509.637 328.495 508.188 333.597 506.588 338.632L508.493 339.237C510.105 334.164 511.567 329.021 512.871 323.817L510.931 323.331ZM501.293 353.661C499.369 358.627 497.296 363.517 495.079 368.329L496.895 369.165C499.129 364.317 501.219 359.388 503.159 354.384L501.293 353.661ZM487.969 382.579C485.449 387.261 482.789 391.856 479.995 396.36L481.695 397.415C484.511 392.876 487.191 388.245 489.731 383.527L487.969 382.579ZM471.189 409.62C468.116 413.952 464.913 418.185 461.587 422.313L463.144 423.568C466.497 419.408 469.724 415.143 472.82 410.777L471.189 409.62ZM451.228 434.391C447.652 438.311 443.959 442.119 440.151 445.811L441.543 447.247C445.38 443.525 449.103 439.688 452.705 435.739L451.228 434.391ZM428.399 456.528C424.376 459.977 420.245 463.305 416.015 466.505L417.221 468.1C421.485 464.876 425.647 461.522 429.7 458.047L428.399 456.528ZM403.045 475.701C398.637 478.629 394.133 481.425 389.54 484.083L390.541 485.813C395.171 483.135 399.709 480.317 404.152 477.368L403.045 475.701ZM375.549 491.615C370.821 493.973 366.012 496.193 361.125 498.265L361.905 500.107C366.831 498.017 371.677 495.781 376.443 493.404L375.549 491.615ZM346.323 504.01C341.339 505.768 336.285 507.379 331.167 508.835L331.715 510.759C336.872 509.291 341.965 507.668 346.988 505.896L346.323 504.01ZM315.741 512.71C310.585 513.837 305.372 514.81 300.105 515.624L300.411 517.6C305.717 516.78 310.972 515.8 316.168 514.664L315.741 512.71ZM284.32 517.568C279.072 518.051 273.779 518.377 268.444 518.541L268.507 520.541C273.881 520.375 279.215 520.047 284.504 519.56L284.32 517.568ZM252.535 518.551C247.2 518.393 241.907 518.073 236.659 517.596L236.477 519.588C241.765 520.068 247.1 520.391 252.475 520.551L252.535 518.551ZM220.869 515.672C215.603 514.864 210.388 513.897 205.231 512.777L204.805 514.732C210.003 515.861 215.259 516.835 220.567 517.648L220.869 515.672ZM189.799 508.92C184.679 507.471 179.623 505.865 174.637 504.114L173.973 506C178.999 507.767 184.093 509.383 189.255 510.844L189.799 508.92ZM159.777 498.365C154.876 496.292 150.051 494.071 145.308 491.709L144.416 493.5C149.196 495.88 154.057 498.117 158.999 500.208L159.777 498.365ZM131.281 484.172C126.679 481.514 122.167 478.716 117.748 475.786L116.643 477.453C121.095 480.405 125.643 483.224 130.28 485.904L131.281 484.172ZM104.76 466.586C100.524 463.386 96.3893 460.059 92.3627 456.609L91.0613 458.128C95.12 461.604 99.2853 464.957 103.555 468.183L104.76 466.586ZM80.6013 445.893C76.792 442.204 73.0973 438.397 69.52 434.481L68.0427 435.829C71.648 439.776 75.372 443.612 79.2093 447.331L80.6013 445.893ZM59.16 422.413C55.8347 418.291 52.632 414.063 49.56 409.737L47.9293 410.896C51.0253 415.255 54.252 419.515 57.604 423.669L59.16 422.413ZM40.7587 396.5C37.9667 392.007 35.308 387.421 32.7893 382.751L31.0293 383.7C33.5667 388.407 36.2467 393.028 39.06 397.556L40.7587 396.5ZM25.6853 368.54C23.4707 363.745 21.3987 358.872 19.4747 353.924L17.6107 354.649C19.5493 359.636 21.6373 364.547 23.8693 369.379L25.6853 368.54ZM14.1733 338.928C12.5667 333.895 11.112 328.795 9.81199 323.632L7.872 324.121C9.18267 329.323 10.6493 334.463 12.268 339.536L14.1733 338.928ZM6.40667 308.096C5.43734 302.911 4.62267 297.671 3.968 292.38L1.98267 292.625C2.64267 297.956 3.46401 303.237 4.44001 308.464L6.40667 308.096ZM2.5 276.544C2.17467 271.284 2.00667 265.981 2 260.641L0 260.644C0.00666667 266.024 0.176004 271.367 0.504004 276.667L2.5 276.544ZM2.46266 244.743C2.78 239.417 3.25733 234.136 3.89199 228.903L1.90667 228.661C1.26801 233.936 0.785333 239.257 0.466667 244.624L2.46266 244.743ZM6.29333 213.18C7.25999 207.941 8.38399 202.757 9.66133 197.635L7.72 197.151C6.43334 202.313 5.29999 207.537 4.32666 212.816L6.29333 213.18ZM13.9853 182.328C15.5933 177.247 17.3533 172.232 19.2613 167.292L17.396 166.572C15.4733 171.551 13.6987 176.603 12.0787 181.724L13.9853 182.328ZM25.4587 152.617C27.68 147.783 30.0467 143.028 32.552 138.359L30.7893 137.413C28.264 142.119 25.88 146.909 23.6413 151.783L25.4587 152.617ZM40.5093 124.568C43.3053 120.051 46.2373 115.624 49.3 111.297L47.6667 110.141C44.5813 114.503 41.6267 118.963 38.8093 123.516L40.5093 124.568ZM58.8867 98.5933C62.212 94.456 65.6613 90.424 69.232 86.5027L67.752 85.156C64.1546 89.108 60.6787 93.1706 57.328 97.34L58.8867 98.5933ZM80.2947 75.0706C84.0973 71.3746 88.012 67.796 92.0347 64.3373L90.732 62.8213C86.6773 66.3053 82.732 69.912 78.9013 73.636L80.2947 75.0706ZM104.407 54.3467C108.627 51.148 112.948 48.0746 117.365 45.1346L116.256 43.4693C111.805 46.4333 107.451 49.5293 103.199 52.752L104.407 54.3467ZM130.86 36.7373C135.435 34.0826 140.096 31.5653 144.843 29.1893L143.948 27.4013C139.164 29.7946 134.465 32.3333 129.856 35.008L130.86 36.7373ZM159.259 22.5213C164.116 20.4547 169.049 18.5306 174.055 16.7586L173.387 14.8733C168.343 16.66 163.371 18.5973 158.476 20.6813L159.259 22.5213ZM189.204 11.916C194.283 10.464 199.424 9.164 204.625 8.02136L204.196 6.06793C198.955 7.21997 193.773 8.5307 188.655 9.99335L189.204 11.916ZM220.257 5.08929C225.469 4.27863 230.731 3.62134 236.041 3.12671L235.855 1.13599C230.505 1.63464 225.201 2.29602 219.951 3.11334L220.257 5.08929ZM251.915 2.13464C254.711 2.04529 257.516 2 260.333 2C262.839 2 265.337 2.03595 267.825 2.10663L267.883 0.106628C265.375 0.0359497 262.859 0 260.333 0C257.495 0 254.668 0.0453491 251.852 0.135986L251.916 2.13464H251.915ZM283.703 3.0426C289.015 3.51862 294.28 4.15601 299.493 4.94934L299.795 2.97198C294.54 2.172 289.233 1.53064 283.881 1.05066L283.703 3.0426ZM315.136 7.82404C320.341 8.94934 325.489 10.2307 330.572 11.6627L331.115 9.73865C325.992 8.29333 320.805 7.00269 315.559 5.86932L315.136 7.82404ZM345.74 16.452C350.769 18.212 355.725 20.124 360.607 22.1813L361.383 20.3387C356.464 18.2653 351.469 16.3387 346.401 14.564L345.74 16.452ZM375.084 28.8214C379.848 31.1867 384.528 33.6947 389.12 36.3413L390.119 34.608C385.492 31.9413 380.775 29.4147 375.973 27.0294L375.084 28.8214ZM402.663 44.7107C407.093 47.6413 411.428 50.7053 415.663 53.8947L416.865 52.2973C412.6 49.0826 408.231 45.996 403.767 43.0426L402.663 44.7107ZM428.072 63.8586C432.105 67.3053 436.032 70.8746 439.845 74.56L441.235 73.1227C437.392 69.408 433.436 65.8106 429.371 62.3373L428.072 63.8586ZM450.94 85.96C454.519 89.8693 457.979 93.8907 461.315 98.0146L462.869 96.7573C459.508 92.6013 456.021 88.5493 452.415 84.6093L450.94 85.96ZM470.929 110.68C473.999 114.992 476.94 119.403 479.747 123.907L481.444 122.849C478.616 118.311 475.652 113.865 472.559 109.52L470.929 110.68ZM487.732 137.647C490.245 142.297 492.621 147.033 494.852 151.849L496.668 151.008C494.419 146.155 492.024 141.383 489.491 136.696L487.732 137.647ZM501.081 166.457C503.003 171.383 504.777 176.381 506.401 181.448L508.305 180.837C506.669 175.731 504.881 170.693 502.944 165.731L501.081 166.457ZM510.78 196.737C512.076 201.856 513.219 207.035 514.204 212.269L516.169 211.9C515.177 206.624 514.025 201.405 512.719 196.247L510.78 196.737ZM516.66 227.983C517.315 233.215 517.811 238.495 518.147 243.819L520.143 243.692C519.805 238.328 519.304 233.007 518.645 227.736L516.66 227.984V227.983ZM518.665 259.719C518.667 259.924 518.667 260.128 518.667 260.333C518.667 265.672 518.505 270.973 518.185 276.231L520.181 276.352C520.503 271.053 520.667 265.712 520.667 260.333C520.667 260.127 520.667 259.921 520.667 259.715L518.665 259.719Z" fill="#F1C9B0"/>
</svg>
